<svg xmlns="http://www.w3.org/2000/svg" viewBox="0 0 120 140" role="img" aria-labelledby="title desc">
  <title id="title">Guardian Medical Transportation</title>
  <desc id="desc">Emerald shield with a gold Rod of Asclepius</desc>
  <path d="M60 4 108 22v39c0 34-19 60-48 75C31 121 12 95 12 61V22L60 4Z" fill="#0b3434"/>
  <path d="M60 13 99 28v33c0 28-15 50-39 64-24-14-39-36-39-64V28L60 13Z" fill="none" stroke="#d79b52" stroke-width="3"/>
  <path d="M60 31v70" fill="none" stroke="#fff" stroke-width="5" stroke-linecap="round"/>
  <path d="M77 43c-13-9-28-1-25 9 2 8 20 7 20 17 0 9-13 13-24 7" fill="none" stroke="#d79b52" stroke-width="5" stroke-linecap="round"/>
  <circle cx="60" cy="27" r="5" fill="#fff"/>
</svg>